<svg enable-background="new 0 0 24 24" viewBox="0 0 24 24" width="24" height="24" xmlns="http://www.w3.org/2000/svg"><path d="m23.79 9.87-5.36 5.49 1.26 7.77c.05.28-.07.57-.3.73-.13.09-.29.14-.44.14-.12 0-.25-.03-.36-.09l-6.59-3.65v-20.23c.28 0 .56.13.68.4l3.31 7.05 7.37 1.12c.28.05.51.24.6.51.09.26.02.56-.17.76z" fill="#eceff1"/><path d="m12 .03v20.23l-6.59 3.65c-.25.14-.56.12-.8-.05-.23-.16-.35-.45-.3-.73l1.26-7.77-5.36-5.49c-.19-.2-.26-.5-.17-.76.09-.27.32-.46.6-.51l7.37-1.12 3.31-7.05c.12-.27.4-.4.68-.4z" fill="#ffc107"/></svg>